<svg xmlns="http://www.w3.org/2000/svg" viewBox="0 0 168 168">
  <path fill="#1ED760" d="M83.996 0C37.747 0 0 37.746 0 84c0 46.251 37.747 84 83.996 84 46.254 0 84.004-37.749 84.004-84 0-46.254-37.75-84-84.004-84zm38.357 121.078c-1.51 2.473-4.727 3.255-7.204 1.744-19.72-12.052-44.526-14.777-73.728-8.094a5.118 5.118 0 01-6.337-3.504 5.119 5.119 0 013.504-6.342c31.939-7.272 59.266-4.138 81.519 9.396 2.474 1.51 3.256 4.731 1.746 7.2zm10.244-22.804c-1.89 3.073-5.916 4.036-8.981 2.148-22.553-13.853-56.923-17.89-83.55-9.786-3.453 1.043-7.1-.896-8.145-4.35a6.536 6.536 0 014.346-8.148c30.619-9.276 68.723-4.783 94.723 11.156 3.068 1.888 4.03 5.912 2.146 8.98zm.882-23.755c-27.05-16.077-71.744-17.574-97.602-9.747-4.137 1.255-8.513-1.08-9.768-5.212a7.835 7.835 0 015.212-9.771c29.583-8.984 78.756-7.247 109.832 11.227a7.823 7.823 0 012.525 10.773c-2.138 3.67-6.886 4.859-10.557 2.73z"/>
</svg>